<svg id="Layer_1" data-name="Layer 1" xmlns="http://www.w3.org/2000/svg" xmlns:xlink="http://www.w3.org/1999/xlink" viewBox="0 0 2620 1080"><defs><style>.cls-1,.cls-10,.cls-2,.cls-3,.cls-4,.cls-5,.cls-6,.cls-7,.cls-8,.cls-9{stroke:#6ffff0;stroke-miterlimit:10;}.cls-1,.cls-2,.cls-3,.cls-4{stroke-width:0.75px;}.cls-1{fill:url(#linear-gradient);}.cls-2{fill:url(#linear-gradient-2);}.cls-3{fill:url(#linear-gradient-3);}.cls-4{fill:url(#linear-gradient-4);}.cls-5{fill:url(#linear-gradient-5);}.cls-10,.cls-6,.cls-8{opacity:0.9;}.cls-6{fill:url(#linear-gradient-6);}.cls-7{opacity:0.85;fill:url(#linear-gradient-7);}.cls-8{fill-opacity:0.8;fill:url(#linear-gradient-8);}.cls-9{fill-opacity:0.85;fill:url(#linear-gradient-9);}.cls-10{fill-opacity:0.9;fill:url(#linear-gradient-10);}</style><linearGradient id="linear-gradient" x1="224.89" y1="618.55" x2="516.91" y2="391.24" gradientUnits="userSpaceOnUse"><stop offset="0" stop-color="#00b9b0"/><stop offset="0.16" stop-color="#0bbfb5"/><stop offset="0.43" stop-color="#27d1c2"/><stop offset="0.79" stop-color="#55edd8"/><stop offset="1" stop-color="#73ffe6"/></linearGradient><linearGradient id="linear-gradient-2" x1="241.86" y1="601.46" x2="415.02" y2="679.77" gradientUnits="userSpaceOnUse"><stop offset="0" stop-color="#057479"/><stop offset="1" stop-color="#33d3d0"/></linearGradient><linearGradient id="linear-gradient-3" x1="613.49" y1="649.21" x2="917.09" y2="437.63" gradientUnits="userSpaceOnUse"><stop offset="0" stop-color="#0029ff"/><stop offset="1" stop-color="#447fd9"/></linearGradient><linearGradient id="linear-gradient-4" x1="689.62" y1="374.43" x2="758.21" y2="455.07" gradientUnits="userSpaceOnUse"><stop offset="0" stop-color="#447fd9"/><stop offset="1" stop-color="#1340b8"/></linearGradient><linearGradient id="linear-gradient-5" x1="2282.18" y1="438.04" x2="2282.18" y2="747.46" gradientUnits="userSpaceOnUse"><stop offset="0" stop-color="#6ffff0"/><stop offset="0.15" stop-color="#5cecde"/><stop offset="0.44" stop-color="#2bbab0"/><stop offset="0.62" stop-color="#0a9991"/><stop offset="0.81" stop-color="#057e83"/><stop offset="1" stop-color="#006778"/></linearGradient><linearGradient id="linear-gradient-6" x1="1304.78" y1="430.04" x2="1304.78" y2="737.28" gradientUnits="userSpaceOnUse"><stop offset="0" stop-color="#6ffff0"/><stop offset="0.14" stop-color="#6bfbec"/><stop offset="0.29" stop-color="#5eeee0"/><stop offset="0.44" stop-color="#49d8cc"/><stop offset="0.6" stop-color="#2bbab0"/><stop offset="0.73" stop-color="#0a9991"/><stop offset="0.97" stop-color="#016d7b"/><stop offset="1" stop-color="#006778"/></linearGradient><linearGradient id="linear-gradient-7" x1="2006.89" y1="431.04" x2="2006.89" y2="738.28" gradientUnits="userSpaceOnUse"><stop offset="0" stop-color="#6ffff0"/><stop offset="0.15" stop-color="#6afaec"/><stop offset="0.32" stop-color="#5deddf"/><stop offset="0.49" stop-color="#47d7ca"/><stop offset="0.67" stop-color="#28b8ae"/><stop offset="0.82" stop-color="#0a9991"/><stop offset="0.84" stop-color="#09938e"/><stop offset="1" stop-color="#006778"/></linearGradient><linearGradient id="linear-gradient-8" x1="1484.71" y1="341.57" x2="1484.71" y2="738.36" gradientUnits="userSpaceOnUse"><stop offset="0" stop-color="#6ffff0"/><stop offset="0.27" stop-color="#62f2e4"/><stop offset="0.71" stop-color="#44d3c7"/><stop offset="0.76" stop-color="#3fcbc1"/><stop offset="0.83" stop-color="#31b5b1"/><stop offset="0.92" stop-color="#1a9197"/><stop offset="1" stop-color="#006778"/></linearGradient><linearGradient id="linear-gradient-9" x1="1123.13" y1="348.33" x2="1123.13" y2="738.48" gradientUnits="userSpaceOnUse"><stop offset="0" stop-color="#6ffff0"/><stop offset="0.3" stop-color="#6dfdee"/><stop offset="0.45" stop-color="#65f5e7"/><stop offset="0.56" stop-color="#58e8db"/><stop offset="0.66" stop-color="#46d6ca"/><stop offset="0.75" stop-color="#2ebeb3"/><stop offset="0.82" stop-color="#12a198"/><stop offset="0.84" stop-color="#0a9991"/><stop offset="0.84" stop-color="#0a9991"/><stop offset="0.94" stop-color="#03757f"/><stop offset="1" stop-color="#006778"/></linearGradient><linearGradient id="linear-gradient-10" x1="1735.14" y1="341.52" x2="1735.14" y2="738.48" gradientUnits="userSpaceOnUse"><stop offset="0" stop-color="#6ffff0"/><stop offset="0.21" stop-color="#6cfced"/><stop offset="0.35" stop-color="#63f3e5"/><stop offset="0.48" stop-color="#53e3d6"/><stop offset="0.6" stop-color="#3dcdc1"/><stop offset="0.72" stop-color="#21b0a7"/><stop offset="0.79" stop-color="#0a9991"/><stop offset="0.82" stop-color="#09928d"/><stop offset="1" stop-color="#006778"/></linearGradient></defs><polygon class="cls-1" points="562 278.62 191.93 540 298.44 646.5 562 460.35 562 278.62"/><polygon class="cls-2" points="298.44 646.5 362.14 710.21 362.14 601.51 298.44 646.5"/><polygon class="cls-3" points="527.29 801.38 897.36 540 790.85 433.5 527.29 619.65 527.29 801.38"/><polygon class="cls-4" points="790.85 433.5 727.15 369.79 727.15 478.49 790.85 433.5"/><path class="cls-5" d="M2319.38,438c-36.91,0-68.15,15.34-86.32,40.32v-33.5h-96v293.6h96V567.53l.57,1.7c0-29,22.14-51.11,51.68-51.11s50,22.71,50,55.08V738.46h92V551.62C2427.28,485.18,2382.42,438,2319.38,438Z"/><path class="cls-6" d="M1304.78,737.28c88.59,0,163-70.42,163-153.9S1393.37,430,1304.78,430s-163,69.86-163,153.34S1216.19,737.28,1304.78,737.28Zm0-80.08c-39.18,0-72.12-34.07-72.12-73.82s32.94-73.26,72.12-73.26,72.13,33.5,72.13,73.26S1344,657.2,1304.78,657.2Z"/><path class="cls-7" d="M2006.89,738.28c88.59,0,163-70.42,163-153.9S2095.48,431,2006.89,431s-163,69.86-163,153.34S1918.3,738.28,2006.89,738.28Zm0-80.08c-39.19,0-72.13-34.07-72.13-73.82s32.94-73.26,72.13-73.26,72.12,33.5,72.12,73.26S2046.07,658.2,2006.89,658.2Z"/><path class="cls-8" d="M1436.6,738.36h96.79V429.94h117.72V341.57h-332.8v88.37H1436.6Z"/><path class="cls-9" d="M1074.57,738.48h97.12V348.33h-97.12Z"/><path class="cls-10" d="M1772.33,438.06c-36.91,0-67.58,15.33-85.75,39.75V341.52H1590v397h96.54V569.25c0-29,22.15-51.11,51.68-51.11s50,22.71,50,55.08V738.48h92V551.64C1880.24,485.2,1835.37,438.06,1772.33,438.06Z"/></svg>